<svg width="24" height="24" viewBox="0 0 24 24" fill="none" xmlns="http://www.w3.org/2000/svg">
<path fill-rule="evenodd" clip-rule="evenodd" d="M6.90799 7.03958C7.16229 6.71262 7.63349 6.65372 7.96046 6.90802C8.28742 7.16232 8.34632 7.63353 8.09201 7.96049L4.95015 12L8.09201 16.0396C8.34632 16.3665 8.28742 16.8377 7.96046 17.092C7.63349 17.3464 7.16229 17.2874 6.90799 16.9605L3.40799 12.4605C3.19734 12.1897 3.19734 11.8104 3.40799 11.5396L6.90799 7.03958ZM20 8.25003H13C12.8011 8.25003 12.6103 8.17101 12.4697 8.03036C12.329 7.88971 12.25 7.69894 12.25 7.50003C12.25 7.30112 12.329 7.11035 12.4697 6.9697C12.6103 6.82905 12.8011 6.75003 13 6.75003H20C20.1989 6.75003 20.3897 6.82905 20.5303 6.9697C20.671 7.11035 20.75 7.30112 20.75 7.50003C20.75 7.69894 20.671 7.88971 20.5303 8.03036C20.3897 8.17101 20.1989 8.25003 20 8.25003ZM20 12.75H11C10.8011 12.75 10.6103 12.671 10.4697 12.5304C10.329 12.3897 10.25 12.1989 10.25 12C10.25 11.8011 10.329 11.6104 10.4697 11.4697C10.6103 11.329 10.8011 11.25 11 11.25H20C20.1989 11.25 20.3897 11.329 20.5303 11.4697C20.671 11.6104 20.75 11.8011 20.75 12C20.75 12.1989 20.671 12.3897 20.5303 12.5304C20.3897 12.671 20.1989 12.75 20 12.75ZM13 17.25H20C20.1989 17.25 20.3897 17.171 20.5303 17.0304C20.671 16.8897 20.75 16.6989 20.75 16.5C20.75 16.3011 20.671 16.1104 20.5303 15.9697C20.3897 15.829 20.1989 15.75 20 15.75H13C12.8011 15.75 12.6103 15.829 12.4697 15.9697C12.329 16.1104 12.25 16.3011 12.25 16.5C12.25 16.6989 12.329 16.8897 12.4697 17.0304C12.6103 17.171 12.8011 17.25 13 17.25Z" fill="white"/>
</svg>
