<svg width="24" height="24" viewBox="0 0 24 24" fill="none" xmlns="http://www.w3.org/2000/svg">
<path d="M9 11.1455L10.0545 13.9455L12.8545 15L10.0545 16.0545L9 18.8545L7.94546 16.0545L5.14545 15L7.94546 13.9455L9 11.1455ZM9 7L6.81818 12.8182L1 15L6.81818 17.1818L9 23L11.1818 17.1818L17 15L11.1818 12.8182L9 7Z" fill="white"/>
<path d="M18 3.59091L18.6591 5.34091L20.4091 6L18.6591 6.65909L18 8.40909L17.3409 6.65909L15.5909 6L17.3409 5.34091L18 3.59091ZM18 1L16.6364 4.63636L13 6L16.6364 7.36364L18 11L19.3636 7.36364L23 6L19.3636 4.63636L18 1Z" fill="white"/>
</svg>
