<svg width="18" height="18" viewBox="0 0 18 18" fill="none" xmlns="http://www.w3.org/2000/svg">
<path fill-rule="evenodd" clip-rule="evenodd" d="M0.902122 14.2305C1.01037 14.2847 1.13014 14.312 1.25121 14.3099C1.32556 14.3098 1.39956 14.2997 1.47121 14.2799L4.51596 13.334C5.20536 14.5895 6.29865 15.5843 7.62748 16.1503C9.14966 16.7987 10.8634 16.8344 12.4112 16.2499L16.5312 17.4999C16.6042 17.5097 16.6782 17.5097 16.7512 17.4999H16.7812C16.9023 17.502 17.0221 17.4747 17.1303 17.4205C17.2385 17.3662 17.332 17.2865 17.4028 17.1882C17.4735 17.09 17.5195 16.976 17.5366 16.8562C17.5537 16.7363 17.5416 16.6141 17.5012 16.4999L16.2512 12.3799C16.5138 11.6587 16.6491 10.8974 16.6512 10.1299C16.654 9.264 16.4805 8.40659 16.1412 7.60991C15.8179 6.84093 15.3493 6.1415 14.7612 5.54991C14.5147 5.3137 14.2505 5.0968 13.9711 4.90106C13.9202 4.74884 13.8635 4.59835 13.8012 4.4499C13.4742 3.68291 13.0061 2.98413 12.4212 2.3899C11.6675 1.64488 10.7425 1.09611 9.72736 0.791669C8.71222 0.48723 7.6379 0.436421 6.59857 0.643697C5.55923 0.850972 4.58659 1.31 3.7659 1.98056C2.9452 2.65112 2.3015 3.51274 1.89121 4.4899C1.55276 5.28333 1.37924 6.13731 1.38121 6.9999C1.39035 7.74721 1.52558 8.48762 1.78121 9.1899L0.531214 13.3099C0.490833 13.4241 0.478693 13.5463 0.495832 13.6662C0.51297 13.786 0.558878 13.9 0.629631 13.9982C0.700383 14.0965 0.793878 14.1762 0.902122 14.2305ZM14.2754 7.56295C14.2136 8.2111 14.0541 8.84738 13.8012 9.4499C13.4742 10.2169 13.0061 10.9157 12.4212 11.5099C11.5443 12.3852 10.4349 12.9908 9.22437 13.2549C8.22764 13.4723 7.19678 13.4508 6.21522 13.196C6.34011 13.3653 6.47566 13.5269 6.62121 13.6799C7.32237 14.3734 8.21294 14.844 9.18091 15.0326C10.1489 15.2212 11.151 15.1194 12.0612 14.7399C12.226 14.6803 12.4064 14.6803 12.5712 14.7399L15.5712 15.6599L14.6512 12.6599C14.5916 12.4951 14.5916 12.3147 14.6512 12.1499C14.9105 11.5396 15.0431 10.883 15.0412 10.2199C15.0436 9.56804 14.9166 8.92217 14.6678 8.31968C14.5588 8.05595 14.4274 7.80282 14.2754 7.56295ZM5.91121 2.3899C6.52153 2.13065 7.17812 1.99798 7.84121 1.9999C8.64415 2.0202 9.43038 2.23364 10.1334 2.62215C10.8363 3.01066 11.4354 3.5628 11.8798 4.23186C12.3242 4.90091 12.6009 5.66717 12.6864 6.4658C12.7719 7.26443 12.6638 8.07191 12.3712 8.8199C11.8512 10.0275 10.8764 10.9817 9.65795 11.4758C8.43951 11.9699 7.07548 11.9642 5.86121 11.4599C5.69643 11.4003 5.516 11.4003 5.35121 11.4599L2.35121 12.3799L3.27121 9.3799C3.33079 9.21512 3.33079 9.03468 3.27121 8.8699C3.01406 8.2572 2.88161 7.59939 2.88161 6.9349C2.88161 6.27042 3.01406 5.61261 3.27121 4.9999C3.78366 3.82335 4.72888 2.88887 5.91121 2.3899Z" fill="#25282E"/>
</svg>
