<svg width="20" height="18" viewBox="0 0 20 18" fill="none" xmlns="http://www.w3.org/2000/svg">
<path d="M18.53 13.25C18.44 13.25 16.42 12.89 16.42 7C16.42 2.84 14 0.25 10 0.25C6 0.25 3.58 2.84 3.58 7C3.58 13 1.49 13.25 1.5 13.25C1.30109 13.25 1.11032 13.329 0.96967 13.4697C0.829018 13.6103 0.75 13.8011 0.75 14C0.75 14.1989 0.829018 14.3897 0.96967 14.5303C1.11032 14.671 1.30109 14.75 1.5 14.75H6.33C6.49694 15.6007 6.95423 16.367 7.62366 16.9178C8.29309 17.4686 9.13308 17.7698 10 17.7698C10.8669 17.7698 11.7069 17.4686 12.3763 16.9178C13.0458 16.367 13.5031 15.6007 13.67 14.75H18.51C18.7089 14.75 18.8997 14.671 19.0403 14.5303C19.181 14.3897 19.26 14.1989 19.26 14C19.26 13.8011 19.181 13.6103 19.0403 13.4697C18.8997 13.329 18.7089 13.25 18.51 13.25H18.53ZM10 16.25C9.5363 16.2491 9.0843 16.1044 8.70636 15.8357C8.32843 15.567 8.04319 15.1877 7.89 14.75H12.11C11.9568 15.1877 11.6716 15.567 11.2936 15.8357C10.9157 16.1044 10.4637 16.2491 10 16.25ZM3.76 13.25C4.48 12.16 5.08 10.25 5.08 7C5.08 3.75 6.88 1.75 10 1.75C13.12 1.75 14.92 3.66 14.92 7C14.92 10.34 15.52 12.16 16.24 13.25H3.76Z" fill="#25282E"/>
</svg>
