<svg width="18" height="18" viewBox="0 0 18 18" fill="none" xmlns="http://www.w3.org/2000/svg">
<path fill-rule="evenodd" clip-rule="evenodd" d="M9.13 0.635108C11.349 0.635108 13.4776 1.51416 15.05 3.07988C16.6201 4.64996 17.5021 6.77945 17.5021 8.99988C17.5021 11.2203 16.6201 13.3498 15.05 14.9199C13.4799 16.49 11.3504 17.372 9.13 17.372C6.90957 17.372 4.78008 16.49 3.21 14.9199C3.13924 14.8509 3.08301 14.7685 3.04461 14.6775C3.00621 14.5865 2.98643 14.4887 2.98643 14.3899C2.98643 14.2911 3.00621 14.1933 3.04461 14.1023C3.08301 14.0112 3.13924 13.9288 3.21 13.8599C3.35063 13.7194 3.54125 13.6405 3.74 13.6405C3.93875 13.6405 4.12937 13.7194 4.27 13.8599C10.99 20.0499 20.18 10.8299 13.99 4.13988C12.7001 2.85262 10.9523 2.12967 9.13 2.12967C7.30771 2.12967 5.55985 2.85262 4.27 4.13988L3 5.37988H6C6.19891 5.37988 6.38968 5.4589 6.53033 5.59955C6.67098 5.7402 6.75 5.93097 6.75 6.12988C6.75 6.32879 6.67098 6.51956 6.53033 6.66021C6.38968 6.80086 6.19891 6.87988 6 6.87988H1.25C1.05017 6.87725 0.859424 6.79602 0.719052 6.65378C0.57868 6.51154 0.499983 6.31973 0.5 6.11988V1.37988C0.5 1.18097 0.579018 0.990205 0.71967 0.849553C0.860322 0.7089 1.05109 0.629883 1.25 0.629883C1.44891 0.629883 1.63968 0.7089 1.78033 0.849553C1.92098 0.990205 2 1.18097 2 1.37988V4.28988L3.21 3.07988C4.78239 1.51416 6.91101 0.635108 9.13 0.635108ZM8.47253 4.97241C8.61263 4.83232 8.80189 4.75247 9 4.74988C9.19284 4.76003 9.37458 4.8432 9.50831 4.9825C9.64204 5.1218 9.71773 5.30679 9.72 5.49988V8.71988L12 10.9999C12.0848 11.1025 12.1408 11.2257 12.1622 11.3571C12.1836 11.4885 12.1696 11.6231 12.1218 11.7473C12.0739 11.8715 11.9939 11.9807 11.8899 12.0638C11.7859 12.1468 11.6617 12.2007 11.53 12.2199C11.4315 12.2203 11.3338 12.2011 11.2428 12.1633C11.1518 12.1256 11.0692 12.07 11 11.9999L8.47 9.52988C8.32931 9.38936 8.25017 9.19872 8.25 8.99988V5.49988C8.25259 5.30177 8.33244 5.11251 8.47253 4.97241Z" fill="url(#paint0_linear_1907_15637)"/>
<defs>
<linearGradient id="paint0_linear_1907_15637" x1="0.5" y1="0.629883" x2="17.6293" y2="0.76096" gradientUnits="userSpaceOnUse">
<stop stop-color="#0074E8"/>
<stop offset="1" stop-color="#A933FB"/>
</linearGradient>
</defs>
</svg>
