<svg width="18" height="18" viewBox="0 0 18 18" fill="none" xmlns="http://www.w3.org/2000/svg">
<path fill-rule="evenodd" clip-rule="evenodd" d="M8.21059 17.5762C8.48009 17.6896 8.76934 17.7487 9.06172 17.75C9.64639 17.732 10.2016 17.489 10.6114 17.0717C11.0213 16.6544 11.2543 16.0949 11.2617 15.51C11.2626 15.4125 11.2889 15.317 11.338 15.2328C11.3871 15.1486 11.4573 15.0787 11.5417 15.03C11.63 14.9976 11.7256 14.9907 11.8175 15.0102C11.9095 15.0296 11.9942 15.0746 12.0617 15.14C12.2679 15.3462 12.5126 15.5098 12.782 15.6214C13.0514 15.733 13.3401 15.7904 13.6317 15.7904C13.9233 15.7904 14.212 15.733 14.4814 15.6214C14.7508 15.5098 14.9956 15.3462 15.2017 15.14C15.4063 14.9316 15.5674 14.6846 15.6756 14.4133C15.7838 14.1421 15.8368 13.852 15.8317 13.56C15.827 12.9751 15.5938 12.4152 15.1817 12C15.1164 11.9324 15.0714 11.8478 15.0519 11.7558C15.0324 11.6638 15.0393 11.5683 15.0717 11.48C15.1139 11.3987 15.1768 11.33 15.2541 11.2809C15.3313 11.2317 15.4202 11.2038 15.5117 11.2C15.8033 11.2026 16.0925 11.1478 16.3628 11.0387C16.6332 10.9296 16.8794 10.7682 17.0874 10.5639C17.2954 10.3597 17.4611 10.1164 17.5751 9.84805C17.6891 9.57971 17.7491 9.29154 17.7517 9C17.7337 8.41533 17.4907 7.86017 17.0734 7.45029C16.6561 7.04041 16.0966 6.80745 15.5117 6.8C15.4122 6.79231 15.3163 6.75994 15.2324 6.70581C15.1486 6.65168 15.0796 6.57751 15.0317 6.49C15.002 6.3965 14.9966 6.29701 15.0158 6.20082C15.0351 6.10463 15.0784 6.01489 15.1417 5.94C15.3479 5.73385 15.5115 5.48909 15.6231 5.2197C15.7347 4.95032 15.7922 4.66159 15.7922 4.37C15.7922 4.07841 15.7347 3.78968 15.6231 3.5203C15.5115 3.25091 15.3479 3.00615 15.1417 2.8C14.9358 2.59208 14.6892 2.42883 14.4173 2.32044C14.1455 2.21204 13.8542 2.16083 13.5617 2.17C12.9768 2.17467 12.4169 2.40796 12.0017 2.82C11.9342 2.88537 11.8495 2.93036 11.7575 2.94982C11.6656 2.96927 11.57 2.96241 11.4817 2.93C11.4004 2.88781 11.3317 2.8249 11.2826 2.74764C11.2334 2.67038 11.2055 2.5815 11.2017 2.49C11.2044 2.19846 11.1495 1.90926 11.0404 1.63891C10.9313 1.36855 10.77 1.12234 10.5657 0.914339C10.3614 0.706333 10.1181 0.540605 9.84977 0.426617C9.58142 0.312629 9.29326 0.252615 9.00172 0.25C8.41189 0.268197 7.85233 0.515367 7.44165 0.939118C7.03097 1.36287 6.80144 1.92989 6.80172 2.52C6.79403 2.61947 6.76166 2.71546 6.70753 2.79927C6.6534 2.88308 6.57922 2.95207 6.49172 3C6.39573 3.02574 6.29474 3.02638 6.19843 3.00187C6.10212 2.97735 6.01372 2.9285 5.94172 2.86C5.73556 2.65379 5.49081 2.49021 5.22142 2.3786C4.95204 2.267 4.66331 2.20955 4.37172 2.20955C4.08013 2.20955 3.7914 2.267 3.52202 2.3786C3.25263 2.49021 3.00787 2.65379 2.80172 2.86C2.5971 3.06836 2.43601 3.31538 2.32784 3.58665C2.21968 3.85792 2.16661 4.14801 2.17172 4.44C2.17639 5.02492 2.40968 5.58481 2.82172 6C2.89047 6.07395 2.93572 6.16664 2.95175 6.26633C2.96777 6.36603 2.95384 6.46823 2.91172 6.56C2.87607 6.64294 2.81775 6.71415 2.74346 6.76545C2.66917 6.81675 2.58191 6.84605 2.49172 6.85C2.20018 6.84868 1.91124 6.9048 1.6414 7.01515C1.37155 7.12551 1.12608 7.28793 0.919006 7.49314C0.711931 7.69836 0.547305 7.94236 0.434527 8.2112C0.321749 8.48004 0.263029 8.76847 0.261719 9.06C0.279858 9.6481 0.525638 10.2062 0.947244 10.6166C1.36885 11.027 1.93334 11.2577 2.52172 11.26C2.61917 11.2609 2.71472 11.2872 2.7989 11.3363C2.88308 11.3854 2.95299 11.4556 3.00172 11.54C3.03044 11.631 3.03251 11.7283 3.00771 11.8205C2.9829 11.9126 2.93224 11.9957 2.86172 12.06C2.65551 12.2662 2.49193 12.5109 2.38032 12.7803C2.26872 13.0497 2.21127 13.3384 2.21127 13.63C2.21127 13.9216 2.26872 14.2103 2.38032 14.4797C2.49193 14.7491 2.65551 14.9938 2.86172 15.2C3.28625 15.6077 3.85311 15.8338 4.44172 15.83C5.02664 15.8253 5.58653 15.592 6.00172 15.18C6.07567 15.1112 6.16836 15.066 6.26805 15.05C6.36775 15.034 6.46995 15.0479 6.56172 15.09C6.64466 15.1257 6.71587 15.184 6.76717 15.2583C6.81846 15.3326 6.84777 15.4198 6.85172 15.51C6.84908 15.8024 6.90423 16.0924 7.01398 16.3634C7.12374 16.6344 7.28595 16.881 7.4913 17.0892C7.69665 17.2973 7.9411 17.4628 8.21059 17.5762ZM7.12172 13.7C6.87968 13.5915 6.61695 13.5369 6.35172 13.54C5.82622 13.5432 5.32181 13.7471 4.94172 14.11C4.87606 14.1757 4.79811 14.2277 4.71232 14.2633C4.62653 14.2988 4.53458 14.3171 4.44172 14.3171C4.34886 14.3171 4.25691 14.2988 4.17112 14.2633C4.08533 14.2277 4.00738 14.1757 3.94172 14.11C3.87606 14.0443 3.82397 13.9664 3.78844 13.8806C3.7529 13.7948 3.73461 13.7029 3.73461 13.61C3.73461 13.5171 3.7529 13.4252 3.78844 13.3394C3.82397 13.2536 3.87606 13.1757 3.94172 13.11C4.22091 12.8299 4.41078 12.4732 4.48732 12.0852C4.56386 11.6972 4.52363 11.2952 4.37172 10.93C4.20588 10.579 3.94422 10.282 3.61691 10.0732C3.28959 9.8644 2.90994 9.75237 2.52172 9.75C2.32841 9.75315 2.14118 9.6825 1.99812 9.55245C1.85507 9.42241 1.76696 9.24273 1.75172 9.05C1.75952 8.85724 1.84229 8.67515 1.98238 8.54253C2.12248 8.40991 2.30882 8.33724 2.50172 8.34C2.88858 8.33109 3.26455 8.21014 3.58405 7.99182C3.90354 7.7735 4.15284 7.46718 4.30172 7.11C4.45613 6.74673 4.4996 6.34588 4.42664 5.95795C4.35368 5.57002 4.16756 5.21235 3.89172 4.93C3.82606 4.86434 3.77397 4.78639 3.73844 4.7006C3.7029 4.61481 3.68461 4.52286 3.68461 4.43C3.68461 4.33714 3.7029 4.24519 3.73844 4.1594C3.77397 4.07361 3.82606 3.99566 3.89172 3.93C3.95738 3.86434 4.03533 3.81225 4.12112 3.77672C4.20691 3.74118 4.29886 3.72289 4.39172 3.72289C4.48458 3.72289 4.57653 3.74118 4.66232 3.77672C4.74811 3.81225 4.82606 3.86434 4.89172 3.93C5.17708 4.20753 5.53707 4.39598 5.92774 4.47233C6.31841 4.54869 6.72286 4.50966 7.09172 4.36C7.44734 4.19605 7.75003 3.93593 7.96561 3.60903C8.18119 3.28212 8.30107 2.90145 8.31172 2.51C8.30612 2.31603 8.37592 2.12744 8.50645 1.98385C8.63698 1.84026 8.81809 1.75286 9.01172 1.74C9.20182 1.7478 9.38137 1.82951 9.51212 1.96773C9.64287 2.10595 9.71449 2.28976 9.71172 2.48C9.72427 2.86351 9.84688 3.2353 10.0649 3.55105C10.283 3.86679 10.5872 4.11314 10.9414 4.26072C11.2956 4.4083 11.6848 4.45088 12.0625 4.38337C12.4402 4.31587 12.7906 4.14113 13.0717 3.88C13.1374 3.81434 13.2153 3.76225 13.3011 3.72672C13.3869 3.69118 13.4789 3.67289 13.5717 3.67289C13.6646 3.67289 13.7565 3.69118 13.8423 3.72672C13.9281 3.76225 14.0061 3.81434 14.0717 3.88C14.1374 3.94566 14.1895 4.02361 14.225 4.1094C14.2605 4.19519 14.2788 4.28714 14.2788 4.38C14.2788 4.47286 14.2605 4.56481 14.225 4.6506C14.1895 4.73639 14.1374 4.81434 14.0717 4.88C13.7942 5.16536 13.6057 5.52535 13.5294 5.91602C13.453 6.30669 13.4921 6.71114 13.6417 7.08C13.8057 7.43562 14.0658 7.73831 14.3927 7.95389C14.7196 8.16947 15.1003 8.28936 15.4917 8.3C15.6857 8.2944 15.8743 8.3642 16.0179 8.49473C16.1615 8.62527 16.2489 8.80637 16.2617 9C16.2539 9.1901 16.1722 9.36965 16.034 9.5004C15.8958 9.63115 15.712 9.70277 15.5217 9.7C15.137 9.7008 14.7607 9.81255 14.4379 10.0218C14.115 10.2311 13.8595 10.5291 13.7017 10.88C13.5486 11.2442 13.5067 11.6456 13.5815 12.0336C13.6562 12.4216 13.8442 12.7788 14.1217 13.06C14.2543 13.1926 14.3288 13.3725 14.3288 13.56C14.3288 13.7475 14.2543 13.9274 14.1217 14.06C13.9891 14.1926 13.8093 14.2671 13.6217 14.2671C13.4342 14.2671 13.2543 14.1926 13.1217 14.06C12.8416 13.7808 12.485 13.5909 12.0969 13.5144C11.7089 13.4379 11.3069 13.4781 10.9417 13.63C10.5907 13.7958 10.2937 14.0575 10.0849 14.3848C9.87612 14.7121 9.76409 15.0918 9.76172 15.48C9.76486 15.6733 9.69422 15.8605 9.56417 16.0036C9.43413 16.1466 9.25445 16.2348 9.06172 16.25C8.86896 16.2422 8.68687 16.1594 8.55425 16.0193C8.42163 15.8792 8.34895 15.6929 8.35172 15.5C8.34281 15.1131 8.22186 14.7372 8.00354 14.4177C7.78522 14.0982 7.4789 13.8489 7.12172 13.7ZM7.37396 11.4362C7.85579 11.7582 8.42228 11.93 9.00178 11.93C9.77886 11.93 10.5241 11.6213 11.0736 11.0718C11.6231 10.5224 11.9318 9.77709 11.9318 9.00001C11.9318 8.42051 11.7599 7.85402 11.438 7.37219C11.116 6.89035 10.6584 6.51481 10.123 6.29304C9.58765 6.07128 8.99853 6.01325 8.43016 6.12631C7.8618 6.23936 7.33972 6.51842 6.92996 6.92819C6.52019 7.33795 6.24113 7.86003 6.12808 8.42839C6.01502 8.99676 6.07305 9.58588 6.29481 10.1213C6.51658 10.6567 6.89212 11.1143 7.37396 11.4362ZM8.20731 7.81101C8.44248 7.65388 8.71895 7.57001 9.00178 7.57001C9.38104 7.57001 9.74476 7.72067 10.0129 7.98885C10.2811 8.25702 10.4318 8.62075 10.4318 9.00001C10.4318 9.28284 10.3479 9.55931 10.1908 9.79447C10.0336 10.0296 9.81031 10.2129 9.54902 10.3212C9.28772 10.4294 9.00019 10.4577 8.7228 10.4025C8.44541 10.3474 8.19061 10.2112 7.99062 10.0112C7.79063 9.81118 7.65443 9.55638 7.59926 9.27899C7.54408 9.0016 7.5724 8.71407 7.68063 8.45277C7.78886 8.19147 7.97215 7.96814 8.20731 7.81101Z" fill="#25282E"/>
</svg>
